STARTFONT 2.1
FONT -Monotype-Arial Narrow-Regular-R-Normal--33-240-100-100-P-121-iso8859-9
SIZE 24 100 100
FONTBOUNDINGBOX 33 38 -6 -7

STARTPROPERTIES 24
FOUNDRY "Monotype"
FAMILY_NAME "Arial Narrow"
WEIGHT_NAME "Regular"
SLANT "R"
SETWIDTH_NAME "Normal"
ADD_STYLE_NAME ""
PIXEL_SIZE 33
POINT_SIZE 240
RESOLUTION_X 100
RESOLUTION_Y 100
SPACING "P"
AVERAGE_WIDTH 121
CHARSET_REGISTRY "iso8859"
CHARSET_ENCODING "9"
FACE_NAME "Arial Narrow ISO Latin5"
_DEC_DEVICE_FONTNAMES "PS=arialnarrow-lat5"
COPYRIGHT "Copyright (c) 1993 Monotype Typography Ltd."
CAP_HEIGHT 27
X_HEIGHT 19
WEIGHT 10
QUAD_WIDTH 16
DEFAULT_CHAR 160
FONT_DESCENT 7
FONT_ASCENT 31
ENDPROPERTIES

CHARS 191

STARTCHAR space
ENCODING 32
SWIDTH 228 0
DWIDTH 8 0
BBX 0 0 0 0
BITMAP
ENDCHAR

STARTCHAR exclam
ENCODING 33
SWIDTH 228 0
DWIDTH 8 0
BBX 3 24 2 0
BITMAP
E0
E0
E0
E0
E0
E0
E0
E0
E0
E0
E0
E0
E0
60
40
40
40
40
00
00
00
E0
E0
E0
ENDCHAR

STARTCHAR quotedbl
ENCODING 34
SWIDTH 291 0
DWIDTH 10 0
BBX 7 9 1 15
BITMAP
EE
EE
EE
EE
EE
EE
46
44
44
ENDCHAR

STARTCHAR numbersign
ENCODING 35
SWIDTH 456 0
DWIDTH 15 0
BBX 15 24 0 0
BITMAP
070C
0618
0618
0618
0618
0618
0C18
FFFE
FFFE
0C30
0C30
0C30
1830
1860
1860
FFFE
FFFE
1860
3060
30C0
30C0
30C0
30C0
70C0
ENDCHAR

STARTCHAR dollar
ENCODING 36
SWIDTH 456 0
DWIDTH 15 0
BBX 13 29 1 -3
BITMAP
0200
0200
1FC0
3FE0
3AF0
7270
6238
6238
6200
6200
7200
3A00
3F00
1FC0
07F0
02F0
0238
0238
0218
E218
6218
6238
7238
3AF0
3FE0
0FC0
0200
0200
0200
ENDCHAR

STARTCHAR percent
ENCODING 37
SWIDTH 729 0
DWIDTH 24 0
BBX 20 25 2 -1
BITMAP
3C0300
7E0300
660600
C30600
C30C00
C30C00
C31800
C31800
C31800
663000
7E3000
3C6000
0063C0
00C7E0
00C660
00CC30
018C30
018C30
030C30
030C30
060C30
060C30
060660
0C07E0
0003C0
ENDCHAR

STARTCHAR ampersand
ENCODING 38
SWIDTH 547 0
DWIDTH 18 0
BBX 17 24 1 0
BITMAP
07C000
0FE000
1E7000
1C7000
183000
183000
1C7000
1C7000
0EE000
07C000
0F8000
1F8000
39C400
71E600
70EE00
E07600
E07C00
E03C00
E01C00
703E00
707F00
3FF780
1FC300
070100
ENDCHAR

STARTCHAR quoteright
ENCODING 39
SWIDTH 182 0
DWIDTH 6 0
BBX 3 8 2 16
BITMAP
E0
E0
E0
60
60
40
C0
80
ENDCHAR

STARTCHAR parenleft
ENCODING 40
SWIDTH 273 0
DWIDTH 9 0
BBX 6 31 2 -7
BITMAP
0C
0C
18
18
30
30
70
60
60
E0
E0
E0
C0
C0
C0
C0
C0
C0
C0
E0
E0
60
60
60
70
30
30
18
18
0C
0C
ENDCHAR

STARTCHAR parenright
ENCODING 41
SWIDTH 273 0
DWIDTH 9 0
BBX 6 31 1 -7
BITMAP
C0
C0
60
70
30
30
38
18
18
1C
1C
0C
0C
0C
0C
0C
0C
0C
0C
1C
1C
1C
18
18
38
30
30
60
60
C0
C0
ENDCHAR

STARTCHAR asterisk
ENCODING 42
SWIDTH 319 0
DWIDTH 11 0
BBX 9 10 1 14
BITMAP
1800
1800
1800
CB00
FF80
3E00
1C00
3600
6700
2200
ENDCHAR

STARTCHAR plus
ENCODING 43
SWIDTH 479 0
DWIDTH 16 0
BBX 12 15 2 4
BITMAP
0600
0600
0600
0600
0600
0600
FFF0
FFF0
FFF0
0600
0600
0600
0600
0600
0600
ENDCHAR

STARTCHAR comma
ENCODING 44
SWIDTH 228 0
DWIDTH 8 0
BBX 3 8 2 -5
BITMAP
E0
E0
E0
20
60
60
C0
80
ENDCHAR

STARTCHAR minus
ENCODING 45
SWIDTH 479 0
DWIDTH 16 0
BBX 12 3 2 10
BITMAP
FFF0
FFF0
FFF0
ENDCHAR

STARTCHAR period
ENCODING 46
SWIDTH 228 0
DWIDTH 8 0
BBX 3 3 2 0
BITMAP
E0
E0
E0
ENDCHAR

STARTCHAR slash
ENCODING 47
SWIDTH 228 0
DWIDTH 8 0
BBX 8 25 0 -1
BITMAP
03
06
06
06
06
0C
0C
0C
0C
18
18
18
18
18
30
30
30
30
60
60
60
60
40
C0
C0
ENDCHAR

STARTCHAR zero
ENCODING 48
SWIDTH 456 0
DWIDTH 15 0
BBX 12 24 2 0
BITMAP
1F80
3FC0
39C0
70E0
6060
E070
E070
C030
C030
C030
C030
C030
C030
C030
C030
C030
E030
E070
E070
6060
70E0
39C0
3FC0
1F80
ENDCHAR

STARTCHAR one
ENCODING 49
SWIDTH 456 0
DWIDTH 15 0
BBX 7 24 3 0
BITMAP
02
06
0E
1E
3E
7A
F6
C6
86
06
06
06
06
06
06
06
06
06
06
06
06
06
06
06
ENDCHAR

STARTCHAR two
ENCODING 50
SWIDTH 456 0
DWIDTH 15 0
BBX 13 24 0 0
BITMAP
0FC0
1FE0
3C70
3038
7038
7018
6018
0018
0038
0038
0070
0070
00E0
01C0
0380
0700
0E00
1C00
3C00
3800
7000
7FF8
7FF8
FFF8
ENDCHAR

STARTCHAR three
ENCODING 51
SWIDTH 456 0
DWIDTH 15 0
BBX 12 24 2 0
BITMAP
1F00
3FC0
71C0
E0E0
E060
C060
0060
00E0
00E0
01C0
0F80
0FC0
00E0
0070
0070
0030
0030
C030
C070
E070
E0E0
71E0
3FC0
1F80
ENDCHAR

STARTCHAR four
ENCODING 52
SWIDTH 456 0
DWIDTH 15 0
BBX 14 24 0 0
BITMAP
0060
00E0
00E0
01E0
01E0
0360
0760
0660
0E60
0C60
1860
1860
3060
7060
6060
FFFC
FFFC
FFFC
0060
0060
0060
0060
0060
0060
ENDCHAR

STARTCHAR five
ENCODING 53
SWIDTH 456 0
DWIDTH 15 0
BBX 13 23 1 0
BITMAP
1FF0
1FF0
3FF0
3800
3000
3000
3000
3380
77E0
7FF0
7070
6038
0038
0018
0018
0018
E018
6038
7038
7070
38F0
3FE0
0F80
ENDCHAR

STARTCHAR six
ENCODING 54
SWIDTH 456 0
DWIDTH 15 0
BBX 13 24 1 0
BITMAP
0FC0
1FE0
3CF0
3030
7038
6038
6000
6000
E380
EFE0
EFF0
F870
F038
E038
E018
E018
E018
6018
6038
7038
7870
3CF0
1FE0
0FC0
ENDCHAR

STARTCHAR seven
ENCODING 55
SWIDTH 456 0
DWIDTH 15 0
BBX 13 23 1 0
BITMAP
FFF8
FFF8
FFB8
0070
0060
00E0
00C0
01C0
0180
0380
0300
0700
0700
0600
0E00
0E00
0C00
0C00
0C00
1C00
1C00
1C00
1C00
ENDCHAR

STARTCHAR eight
ENCODING 56
SWIDTH 456 0
DWIDTH 15 0
BBX 13 24 1 0
BITMAP
0F80
3FE0
38E0
7070
6030
6030
6030
7030
7070
38E0
0F80
3FC0
78F0
7070
E038
E018
C018
C018
E038
E038
7078
78F0
3FE0
0FC0
ENDCHAR

STARTCHAR nine
ENCODING 57
SWIDTH 456 0
DWIDTH 15 0
BBX 13 24 1 0
BITMAP
1F80
3FC0
78E0
7070
E070
E030
C030
C038
C038
C038
E038
E078
70F8
7FD8
3FB8
0E38
0038
0030
E030
E070
60E0
71E0
3FC0
1F80
ENDCHAR

STARTCHAR colon
ENCODING 58
SWIDTH 228 0
DWIDTH 8 0
BBX 3 17 2 0
BITMAP
E0
E0
E0
00
00
00
00
00
00
00
00
00
00
00
E0
E0
E0
ENDCHAR

STARTCHAR semicolon
ENCODING 59
SWIDTH 228 0
DWIDTH 8 0
BBX 3 22 2 -5
BITMAP
E0
E0
E0
00
00
00
00
00
00
00
00
00
00
00
E0
E0
E0
20
60
60
C0
80
ENDCHAR

STARTCHAR less
ENCODING 60
SWIDTH 479 0
DWIDTH 16 0
BBX 12 16 2 4
BITMAP
0010
0030
00F0
03F0
0FC0
3F00
FC00
D000
E000
F800
7E00
1F80
07E0
01F0
0070
0010
ENDCHAR

STARTCHAR equal
ENCODING 61
SWIDTH 479 0
DWIDTH 16 0
BBX 12 10 2 7
BITMAP
FFF0
FFF0
FFF0
0000
0000
0000
0000
FFF0
FFF0
FFF0
ENDCHAR

STARTCHAR greater
ENCODING 62
SWIDTH 479 0
DWIDTH 16 0
BBX 12 16 2 4
BITMAP
8000
C000
F000
FC00
3F00
0FC0
03F0
00B0
0070
01F0
07E0
1F80
7E00
F800
E000
8000
ENDCHAR

STARTCHAR question
ENCODING 63
SWIDTH 456 0
DWIDTH 15 0
BBX 13 24 1 0
BITMAP
0FC0
3FE0
38F0
7038
6038
E018
E018
0038
0038
0070
00F0
01E0
03C0
0380
0300
0700
0700
0700
0000
0000
0000
0700
0700
0700
ENDCHAR

STARTCHAR at
ENCODING 64
SWIDTH 832 0
DWIDTH 27 0
BBX 25 31 2 -7
BITMAP
007F8000
01FFE000
07C1F000
0F007800
0E001C00
1C000C00
38000E00
307CC600
30FEC700
61C6C300
6383C300
6383C300
C3018300
C7018300
C6018300
C6018300
C6038600
C6038600
C6030E00
C7071C00
C30F3800
63FBF800
61F3F000
70E1C000
30000380
38000700
1C000E00
0F003C00
07E1F800
03FFF000
007FC000
ENDCHAR

STARTCHAR A
ENCODING 65
SWIDTH 547 0
DWIDTH 18 0
BBX 18 24 0 0
BITMAP
01C000
01E000
01E000
03A000
037000
037000
073000
073800
063800
0E1800
0E1C00
0C1C00
0C0C00
1C0E00
1FFE00
1FFE00
3FFF00
380700
300700
700380
700380
600380
E001C0
E001C0
ENDCHAR

STARTCHAR B
ENCODING 66
SWIDTH 547 0
DWIDTH 18 0
BBX 15 24 2 0
BITMAP
FFC0
FFF0
FFF8
E038
E01C
E01C
E01C
E01C
E018
E038
FFE0
FFF0
FFF8
E03C
E00C
E00E
E00E
E00E
E00E
E01C
E03C
FFF8
FFF8
FFE0
ENDCHAR

STARTCHAR C
ENCODING 67
SWIDTH 592 0
DWIDTH 20 0
BBX 17 24 1 0
BITMAP
01F000
07FC00
1FFE00
1C0F00
380700
700380
700380
600200
600000
E00000
E00000
E00000
E00000
E00000
E00000
E00100
700380
700380
700380
380700
1C0F00
1FFE00
07FC00
01E000
ENDCHAR

STARTCHAR D
ENCODING 68
SWIDTH 592 0
DWIDTH 20 0
BBX 16 24 2 0
BITMAP
FFC0
FFF0
FFF8
E03C
E01C
E00E
E00E
E006
E007
E007
E007
E007
E007
E007
E007
E007
E006
E00E
E00E
E01C
E03C
FFF8
FFF0
FFC0
ENDCHAR

STARTCHAR E
ENCODING 69
SWIDTH 547 0
DWIDTH 18 0
BBX 15 24 2 0
BITMAP
FFFC
FFFC
FFFC
E000
E000
E000
E000
E000
E000
E000
FFFC
FFFC
FFFC
E000
E000
E000
E000
E000
E000
E000
E000
FFFE
FFFE
FFFE
ENDCHAR

STARTCHAR F
ENCODING 70
SWIDTH 501 0
DWIDTH 17 0
BBX 13 24 2 0
BITMAP
FFF8
FFF8
FFF8
E000
E000
E000
E000
E000
E000
E000
FFF0
FFF0
FFF0
E000
E000
E000
E000
E000
E000
E000
E000
E000
E000
E000
ENDCHAR

STARTCHAR G
ENCODING 71
SWIDTH 638 0
DWIDTH 21 0
BBX 18 24 1 0
BITMAP
01F000
07FC00
0FFE00
1E0F00
380380
380380
700180
700100
600000
E00000
E00000
E00000
E03FC0
E03FC0
E03FC0
6001C0
7001C0
7001C0
3001C0
3803C0
1E07C0
0FFF00
07FE00
01F800
ENDCHAR

STARTCHAR H
ENCODING 72
SWIDTH 592 0
DWIDTH 20 0
BBX 16 24 2 0
BITMAP
E007
E007
E007
E007
E007
E007
E007
E007
E007
E007
FFFF
FFFF
FFFF
E007
E007
E007
E007
E007
E007
E007
E007
E007
E007
E007
ENDCHAR

STARTCHAR I
ENCODING 73
SWIDTH 228 0
DWIDTH 8 0
BBX 3 24 2 0
BITMAP
E0
E0
E0
E0
E0
E0
E0
E0
E0
E0
E0
E0
E0
E0
E0
E0
E0
E0
E0
E0
E0
E0
E0
E0
ENDCHAR

STARTCHAR J
ENCODING 74
SWIDTH 410 0
DWIDTH 14 0
BBX 11 24 1 0
BITMAP
00E0
00E0
00E0
00E0
00E0
00E0
00E0
00E0
00E0
00E0
00E0
00E0
00E0
00E0
00E0
00E0
20E0
E0E0
E0E0
E0E0
71C0
7FC0
3F80
1E00
ENDCHAR

STARTCHAR K
ENCODING 75
SWIDTH 547 0
DWIDTH 18 0
BBX 16 24 2 0
BITMAP
E00F
E01E
E03C
E038
E070
E0E0
E1E0
E3C0
E380
E700
EF00
EF80
FB80
F9C0
F1E0
E0E0
E070
E070
E038
E03C
E01C
E00E
E00E
E007
ENDCHAR

STARTCHAR L
ENCODING 76
SWIDTH 456 0
DWIDTH 15 0
BBX 12 24 2 0
BITMAP
E000
E000
E000
E000
E000
E000
E000
E000
E000
E000
E000
E000
E000
E000
E000
E000
E000
E000
E000
E000
E000
FFF0
FFF0
FFF0
ENDCHAR

STARTCHAR M
ENCODING 77
SWIDTH 683 0
DWIDTH 23 0
BBX 19 24 2 0
BITMAP
F001E0
F001E0
F801E0
F803E0
E80360
EC0360
EC0360
EC06E0
EC06E0
EE06E0
E60CE0
E60CE0
E70CE0
E70CE0
E318E0
E318E0
E398E0
E1B0E0
E1B0E0
E1B0E0
E1F0E0
E0E0E0
E0E0E0
E0E0E0
ENDCHAR

STARTCHAR N
ENCODING 78
SWIDTH 592 0
DWIDTH 20 0
BBX 16 24 2 0
BITMAP
E007
F007
F007
F807
F807
FC07
EC07
EE07
E707
E707
E387
E387
E1C7
E1C7
E0E7
E0F7
E077
E03B
E03B
E01F
E01F
E00F
E00F
E007
ENDCHAR

STARTCHAR O
ENCODING 79
SWIDTH 638 0
DWIDTH 21 0
BBX 19 24 1 0
BITMAP
01F000
07FC00
0FFF00
1E0F00
380380
3003C0
7001C0
7001C0
6000E0
E000E0
E000E0
E000E0
E000E0
E000E0
E000E0
6000E0
7000C0
7001C0
380380
380380
1E0F00
0FFE00
07FC00
01F000
ENDCHAR

STARTCHAR P
ENCODING 80
SWIDTH 547 0
DWIDTH 18 0
BBX 15 24 2 0
BITMAP
FFE0
FFF8
FFFC
E01C
E00E
E00E
E00E
E00E
E00E
E00C
E01C
FFFC
FFF8
FFE0
E000
E000
E000
E000
E000
E000
E000
E000
E000
E000
ENDCHAR

STARTCHAR Q
ENCODING 81
SWIDTH 638 0
DWIDTH 21 0
BBX 19 25 1 -1
BITMAP
01F000
07FC00
0FFF00
1E0F00
380380
3801C0
7001C0
7000C0
6000E0
E000E0
E000E0
E000E0
E000E0
E000E0
E000E0
6000C0
7000C0
7021C0
383980
383F80
1E0F00
0FFF80
07FDC0
01F0E0
000060
ENDCHAR

STARTCHAR R
ENCODING 82
SWIDTH 592 0
DWIDTH 20 0
BBX 17 24 2 0
BITMAP
FFF000
FFFC00
FFFE00
E00E00
E00700
E00700
E00700
E00700
E00700
E00E00
FFFC00
FFF800
FFC000
E0F000
E07000
E03800
E01C00
E01C00
E00E00
E00E00
E00700
E00700
E00380
E00380
ENDCHAR

STARTCHAR S
ENCODING 83
SWIDTH 547 0
DWIDTH 18 0
BBX 15 24 1 0
BITMAP
07C0
1FF0
3FF8
783C
701C
600E
600E
6000
7000
3C00
3FC0
0FF0
03FC
007C
000E
000E
E006
E006
E006
700E
781C
3FFC
1FF8
07E0
ENDCHAR

STARTCHAR T
ENCODING 84
SWIDTH 501 0
DWIDTH 17 0
BBX 15 24 1 0
BITMAP
FFFE
FFFE
FFFE
0380
0380
0380
0380
0380
0380
0380
0380
0380
0380
0380
0380
0380
0380
0380
0380
0380
0380
0380
0380
0380
ENDCHAR

STARTCHAR U
ENCODING 85
SWIDTH 592 0
DWIDTH 20 0
BBX 16 24 2 0
BITMAP
E007
E007
E007
E007
E007
E007
E007
E007
E007
E007
E007
E007
E007
E007
E007
E007
E007
E007
6006
700E
781E
3FFC
1FF8
07E0
ENDCHAR

STARTCHAR V
ENCODING 86
SWIDTH 547 0
DWIDTH 18 0
BBX 18 24 0 0
BITMAP
E001C0
600180
700180
700380
300300
300300
380700
380700
180600
1C0E00
1C0E00
0C0C00
0E1C00
0E1C00
061800
061800
073800
033000
033000
03B000
01A000
01E000
01E000
00C000
ENDCHAR

STARTCHAR W
ENCODING 87
SWIDTH 774 0
DWIDTH 26 0
BBX 25 24 0 0
BITMAP
E01C0180
601E0380
601E0380
703A0300
70360300
70370300
30370700
30330700
30730600
38638600
18638600
18618E00
18E18C00
18C18C00
1CC1CC00
0CC0CC00
0DC0DC00
0D80D800
0D80D800
0680F800
07807800
07807000
07007000
07007000
ENDCHAR

STARTCHAR X
ENCODING 88
SWIDTH 547 0
DWIDTH 18 0
BBX 18 24 0 0
BITMAP
700380
380380
380700
1C0E00
0E0E00
0E1C00
071C00
073800
03F000
03F000
01E000
00E000
01E000
03F000
03B000
073800
071C00
0E1C00
1C0E00
1C0E00
380700
380780
700380
E001C0
ENDCHAR

STARTCHAR Y
ENCODING 89
SWIDTH 547 0
DWIDTH 18 0
BBX 18 24 0 0
BITMAP
E003C0
F00380
700700
380700
380E00
1C0E00
1C1C00
0E1800
0E3800
073000
077000
03E000
03E000
01C000
01C000
01C000
01C000
01C000
01C000
01C000
01C000
01C000
01C000
01C000
ENDCHAR

STARTCHAR Z
ENCODING 90
SWIDTH 501 0
DWIDTH 17 0
BBX 16 24 0 0
BITMAP
3FFE
3FFE
3FFE
000E
001C
001C
0038
0070
0070
00E0
01C0
01C0
0380
0700
0700
0E00
1E00
1C00
3800
7800
6000
FFFF
FFFF
FFFF
ENDCHAR

STARTCHAR bracketleft
ENCODING 91
SWIDTH 228 0
DWIDTH 8 0
BBX 5 31 2 -7
BITMAP
F8
F8
C0
C0
C0
C0
C0
C0
C0
C0
C0
C0
C0
C0
C0
C0
C0
C0
C0
C0
C0
C0
C0
C0
C0
C0
C0
C0
C0
F8
F8
ENDCHAR

STARTCHAR backslash
ENCODING 92
SWIDTH 228 0
DWIDTH 8 0
BBX 8 25 0 -1
BITMAP
C0
C0
60
60
60
60
60
30
30
30
30
18
18
18
18
08
0C
0C
0C
0C
06
06
06
06
03
ENDCHAR

STARTCHAR bracketright
ENCODING 93
SWIDTH 228 0
DWIDTH 8 0
BBX 5 31 1 -7
BITMAP
F8
F8
18
18
18
18
18
18
18
18
18
18
18
18
18
18
18
18
18
18
18
18
18
18
18
18
18
18
18
F8
F8
ENDCHAR

STARTCHAR asciicircum
ENCODING 94
SWIDTH 385 0
DWIDTH 13 0
BBX 11 13 1 11
BITMAP
0C00
0E00
0E00
1B00
1B00
3B00
3380
3180
7180
61C0
60C0
E0C0
C0E0
ENDCHAR

STARTCHAR underscore
ENCODING 95
SWIDTH 456 0
DWIDTH 15 0
BBX 17 2 -1 -4
BITMAP
FFFF80
FFFF80
ENDCHAR

STARTCHAR quoteleft
ENCODING 96
SWIDTH 182 0
DWIDTH 6 0
BBX 3 8 2 16
BITMAP
20
60
40
C0
C0
E0
E0
E0
ENDCHAR

STARTCHAR a
ENCODING 97
SWIDTH 456 0
DWIDTH 15 0
BBX 13 17 1 0
BITMAP
1FC0
3FE0
78F0
7070
6030
0030
0070
0FF0
3FD0
7C30
6030
E030
E070
E070
71F0
7FB8
1F38
ENDCHAR

STARTCHAR b
ENCODING 98
SWIDTH 456 0
DWIDTH 15 0
BBX 12 24 2 0
BITMAP
C000
C000
C000
C000
C000
C000
C000
CF80
DFC0
F9E0
E0E0
E070
C070
C030
C030
C030
C030
C030
C070
E070
E0E0
F1E0
DFC0
CF80
ENDCHAR

STARTCHAR c
ENCODING 99
SWIDTH 410 0
DWIDTH 14 0
BBX 12 17 1 0
BITMAP
1F80
3FC0
78E0
7060
E070
E000
C000
C000
C000
C000
C000
E030
E070
7060
78E0
3FC0
1F80
ENDCHAR

STARTCHAR d
ENCODING 100
SWIDTH 456 0
DWIDTH 15 0
BBX 12 24 1 0
BITMAP
0030
0030
0030
0030
0030
0030
0030
1F30
3FB0
78F0
7070
E070
E030
C030
C030
C030
C030
C030
E030
E070
7070
79F0
3FB0
1F30
ENDCHAR

STARTCHAR e
ENCODING 101
SWIDTH 456 0
DWIDTH 15 0
BBX 13 17 1 0
BITMAP
1F80
3FE0
78E0
7070
E030
E038
C038
FFF8
FFF8
C000
C000
E020
E038
7070
78F0
3FE0
0F80
ENDCHAR

STARTCHAR f
ENCODING 102
SWIDTH 228 0
DWIDTH 8 0
BBX 8 24 0 0
BITMAP
0F
1F
3F
38
30
30
30
FE
FE
30
30
30
30
30
30
30
30
30
30
30
30
30
30
30
ENDCHAR

STARTCHAR g
ENCODING 103
SWIDTH 456 0
DWIDTH 15 0
BBX 12 24 1 -7
BITMAP
1F30
3FB0
79F0
7070
E070
E030
C030
C030
C030
C030
C030
E030
E070
7070
79F0
3FB0
1F30
0030
0030
E070
E070
71E0
3FC0
1F80
ENDCHAR

STARTCHAR h
ENCODING 104
SWIDTH 456 0
DWIDTH 15 0
BBX 11 24 2 0
BITMAP
C000
C000
C000
C000
C000
C000
C000
CF00
DFC0
FFE0
F0E0
E060
C060
C060
C060
C060
C060
C060
C060
C060
C060
C060
C060
C060
ENDCHAR

STARTCHAR i
ENCODING 105
SWIDTH 182 0
DWIDTH 6 0
BBX 2 24 2 0
BITMAP
C0
C0
C0
00
00
00
00
C0
C0
C0
C0
C0
C0
C0
C0
C0
C0
C0
C0
C0
C0
C0
C0
C0
ENDCHAR

STARTCHAR j
ENCODING 106
SWIDTH 182 0
DWIDTH 6 0
BBX 5 31 -1 -7
BITMAP
18
18
18
00
00
00
00
18
18
18
18
18
18
18
18
18
18
18
18
18
18
18
18
18
18
18
18
18
F8
F0
E0
ENDCHAR

STARTCHAR k
ENCODING 107
SWIDTH 410 0
DWIDTH 14 0
BBX 11 24 2 0
BITMAP
C000
C000
C000
C000
C000
C000
C000
C1E0
C1C0
C380
C700
CE00
DC00
DC00
FC00
F600
E600
C700
C300
C380
C1C0
C1C0
C0E0
C0E0
ENDCHAR

STARTCHAR l
ENCODING 108
SWIDTH 182 0
DWIDTH 6 0
BBX 2 24 2 0
BITMAP
C0
C0
C0
C0
C0
C0
C0
C0
C0
C0
C0
C0
C0
C0
C0
C0
C0
C0
C0
C0
C0
C0
C0
C0
ENDCHAR

STARTCHAR m
ENCODING 109
SWIDTH 683 0
DWIDTH 23 0
BBX 18 17 2 0
BITMAP
CE0F00
DF9F80
DFDFC0
F1E1C0
E0E0C0
C0C0C0
C0C0C0
C0C0C0
C0C0C0
C0C0C0
C0C0C0
C0C0C0
C0C0C0
C0C0C0
C0C0C0
C0C0C0
C0C0C0
ENDCHAR

STARTCHAR n
ENCODING 110
SWIDTH 456 0
DWIDTH 15 0
BBX 11 17 2 0
BITMAP
C700
DFC0
DFE0
F0E0
E060
C060
C060
C060
C060
C060
C060
C060
C060
C060
C060
C060
C060
ENDCHAR

STARTCHAR o
ENCODING 111
SWIDTH 456 0
DWIDTH 15 0
BBX 13 17 1 0
BITMAP
0FC0
3FE0
78F0
7070
E038
E038
C018
C018
C018
C018
C018
E038
E038
7070
78F0
3FE0
0F80
ENDCHAR

STARTCHAR p
ENCODING 112
SWIDTH 456 0
DWIDTH 15 0
BBX 12 24 2 -7
BITMAP
CF00
DFC0
F0E0
E060
E070
C070
C030
C030
C030
C030
C030
C070
E070
E0E0
F9E0
DFC0
CF80
C000
C000
C000
C000
C000
C000
C000
ENDCHAR

STARTCHAR q
ENCODING 113
SWIDTH 456 0
DWIDTH 15 0
BBX 12 24 1 -7
BITMAP
1F30
3FB0
78F0
7070
E070
E030
C030
C030
C030
C030
C030
E030
E070
7070
78F0
3FB0
1F30
0030
0030
0030
0030
0030
0030
0030
ENDCHAR

STARTCHAR r
ENCODING 114
SWIDTH 273 0
DWIDTH 9 0
BBX 7 17 2 0
BITMAP
CE
DE
DE
F0
E0
E0
C0
C0
C0
C0
C0
C0
C0
C0
C0
C0
C0
ENDCHAR

STARTCHAR s
ENCODING 115
SWIDTH 410 0
DWIDTH 14 0
BBX 12 17 0 0
BITMAP
1F80
3FE0
70E0
6070
6070
7000
7C00
3F80
1FE0
03F0
0070
2030
E030
7070
78F0
3FE0
1F80
ENDCHAR

STARTCHAR t
ENCODING 116
SWIDTH 228 0
DWIDTH 8 0
BBX 7 23 0 0
BITMAP
10
30
30
30
30
30
FC
FC
30
30
30
30
30
30
30
30
30
30
30
30
3E
3E
1E
ENDCHAR

STARTCHAR u
ENCODING 117
SWIDTH 456 0
DWIDTH 15 0
BBX 11 17 2 0
BITMAP
C060
C060
C060
C060
C060
C060
C060
C060
C060
C060
C060
C060
E0E0
E1E0
7FA0
7F60
1C60
ENDCHAR

STARTCHAR v
ENCODING 118
SWIDTH 410 0
DWIDTH 14 0
BBX 13 17 0 0
BITMAP
E018
6038
7030
7030
3070
3070
3860
18E0
18E0
1CC0
0CC0
0DC0
0E80
0780
0780
0700
0300
ENDCHAR

STARTCHAR w
ENCODING 119
SWIDTH 592 0
DWIDTH 20 0
BBX 19 17 0 0
BITMAP
E06060
E0E060
60F0E0
60F0E0
70D0C0
31B0C0
31B9C0
31B980
399980
1B9980
1B1B80
1B1D00
1B0D00
0F0F00
0E0F00
0E0E00
0E0600
ENDCHAR

STARTCHAR x
ENCODING 120
SWIDTH 410 0
DWIDTH 14 0
BBX 13 17 0 0
BITMAP
7038
7070
3870
18E0
1CC0
0EC0
0F80
0700
0700
0F80
0EC0
1DC0
1CE0
3860
3070
7038
E038
ENDCHAR

STARTCHAR y
ENCODING 121
SWIDTH 410 0
DWIDTH 14 0
BBX 13 24 0 -7
BITMAP
E018
6038
7038
7030
3030
3870
3860
1860
1CE0
1CC0
0CC0
0CC0
0E80
0680
0780
0780
0300
0300
0700
0600
0E00
7C00
3C00
3800
ENDCHAR

STARTCHAR z
ENCODING 122
SWIDTH 410 0
DWIDTH 14 0
BBX 12 17 1 0
BITMAP
FFF0
FFF0
00E0
01C0
01C0
0380
0700
0700
0E00
1C00
1C00
3800
7000
E000
C000
FFF0
FFF0
ENDCHAR

STARTCHAR braceleft
ENCODING 123
SWIDTH 274 0
DWIDTH 9 0
BBX 8 31 1 -7
BITMAP
07
0F
1F
1C
18
18
18
18
18
18
18
18
38
30
F0
C0
F0
30
38
18
18
18
18
18
18
18
18
1C
1F
0F
07
ENDCHAR

STARTCHAR bar
ENCODING 124
SWIDTH 213 0
DWIDTH 7 0
BBX 2 31 3 -7
BITMAP
C0
C0
C0
C0
C0
C0
C0
C0
C0
C0
C0
C0
C0
C0
C0
C0
C0
C0
C0
C0
C0
C0
C0
C0
C0
C0
C0
C0
C0
C0
C0
ENDCHAR

STARTCHAR braceright
ENCODING 125
SWIDTH 274 0
DWIDTH 9 0
BBX 8 31 0 -7
BITMAP
E0
F0
F8
18
18
18
18
18
18
18
18
18
1C
0C
0F
03
0F
0C
1C
18
18
18
18
18
18
18
18
38
F8
F0
E0
ENDCHAR

STARTCHAR asciitilde
ENCODING 126
SWIDTH 479 0
DWIDTH 16 0
BBX 14 5 1 9
BITMAP
3C04
FF0C
FFFC
C3F8
80F0
ENDCHAR

STARTCHAR space
ENCODING 160
SWIDTH 228 0
DWIDTH 9 0
BBX 0 0 0 0
BITMAP
ENDCHAR

STARTCHAR exclamdown
ENCODING 161
SWIDTH 273 0
DWIDTH 9 0
BBX 3 24 3 -7
BITMAP
E0
E0
E0
00
00
00
40
40
40
40
60
E0
E0
E0
E0
E0
E0
E0
E0
E0
E0
E0
E0
E0
ENDCHAR

STARTCHAR cent
ENCODING 162
SWIDTH 456 0
DWIDTH 15 0
BBX 12 31 2 -7
BITMAP
0040
0040
00C0
00C0
0080
0080
0180
1F80
3FC0
79E0
7360
E370
E300
C200
C600
C600
C600
C400
EC30
EC70
7C60
79E0
3FC0
1F80
1800
1000
1000
3000
3000
3000
2000
ENDCHAR

STARTCHAR sterling
ENCODING 163
SWIDTH 456 0
DWIDTH 15 0
BBX 14 24 1 0
BITMAP
0FC0
1FE0
3C70
3838
7038
7018
7000
7000
7000
3000
3000
FF80
FF80
1800
1800
1800
1800
3800
3000
6000
FF08
FFF8
FFFC
C0F8
ENDCHAR

STARTCHAR currency
ENCODING 164
SWIDTH 456 0
DWIDTH 15 0
BBX 13 16 1 4
BITMAP
4010
E738
FFF8
7FF0
38E0
7070
6030
6030
6030
6030
7070
38E0
7FF0
FFF8
E738
4010
ENDCHAR

STARTCHAR yen
ENCODING 165
SWIDTH 456 0
DWIDTH 15 0
BBX 15 24 1 0
BITMAP
C01E
E01C
6018
7038
3038
3870
3870
18E0
1CE0
0CC0
0EC0
0780
FFFC
FFFC
0300
0300
0300
FFFC
FFFC
0300
0300
0300
0300
0300
ENDCHAR

STARTCHAR brokenbar
ENCODING 166
SWIDTH 213 0
DWIDTH 7 0
BBX 2 31 3 -7
BITMAP
C0
C0
C0
C0
C0
C0
C0
C0
C0
C0
C0
C0
C0
00
00
00
00
00
C0
C0
C0
C0
C0
C0
C0
C0
C0
C0
C0
C0
C0
ENDCHAR

STARTCHAR section
ENCODING 167
SWIDTH 456 0
DWIDTH 15 0
BBX 12 31 2 -7
BITMAP
1F80
3FC0
79C0
70E0
60E0
6060
7000
3800
1C00
3E00
6F00
E7C0
C1E0
C0E0
C070
E070
7030
7830
3C30
1E60
0FC0
0780
01C0
00E0
00E0
6060
6060
70E0
39E0
3FC0
0F80
ENDCHAR

STARTCHAR dieresis
ENCODING 168
SWIDTH 273 0
DWIDTH 9 0
BBX 8 3 1 21
BITMAP
E7
E7
E7
ENDCHAR

STARTCHAR copyright
ENCODING 169
SWIDTH 604 0
DWIDTH 20 0
BBX 20 24 0 0
BITMAP
01F800
07FE00
0F0700
1C0180
3800C0
30F0C0
61F860
630C60
430620
C60030
C60030
C60030
C60030
C60030
C60630
430620
638C60
61F860
30F0C0
3801C0
1C0380
0F0700
07FE00
01F800
ENDCHAR

STARTCHAR ordfeminine
ENCODING 170
SWIDTH 303 0
DWIDTH 10 0
BBX 9 12 1 12
BITMAP
3C00
7E00
E300
4300
0700
3F00
FB00
C300
C300
C700
7D00
7980
ENDCHAR

STARTCHAR guillemotleft
ENCODING 171
SWIDTH 456 0
DWIDTH 15 0
BBX 11 15 2 1
BITMAP
0C60
18E0
18C0
31C0
3180
7380
E300
E700
E300
7380
3180
31C0
18C0
18E0
0C60
ENDCHAR

STARTCHAR logicalnot
ENCODING 172
SWIDTH 479 0
DWIDTH 16 0
BBX 13 10 1 7
BITMAP
FFF8
FFF8
FFF8
0018
0018
0018
0018
0018
0018
0018
ENDCHAR

STARTCHAR hyphen
ENCODING 173
SWIDTH 273 0
DWIDTH 9 0
BBX 7 3 1 7
BITMAP
FE
FE
FE
ENDCHAR

STARTCHAR registered
ENCODING 174
SWIDTH 604 0
DWIDTH 20 0
BBX 20 24 0 0
BITMAP
01F800
07FE00
0F0700
1C0380
3801C0
3000C0
63F060
63F860
430C20
C30C30
C30C30
C3F830
C3F030
C33030
C31830
431820
630C60
630C60
330EC0
1801C0
1C0380
0F0700
07FE00
01F800
ENDCHAR

STARTCHAR macron
ENCODING 175
SWIDTH 273 0
DWIDTH 9 0
BBX 9 2 0 20
BITMAP
FF80
FF80
ENDCHAR

STARTCHAR degree
ENCODING 176
SWIDTH 328 0
DWIDTH 11 0
BBX 7 9 2 15
BITMAP
38
7C
C6
82
82
82
C6
7C
38
ENDCHAR

STARTCHAR plusminus
ENCODING 177
SWIDTH 479 0
DWIDTH 16 0
BBX 12 20 2 0
BITMAP
0600
0600
0600
0600
0600
0600
FFF0
FFF0
FFF0
0600
0600
0600
0600
0600
0600
0600
0000
FFF0
FFF0
FFF0
ENDCHAR

STARTCHAR twosuperior
ENCODING 178
SWIDTH 273 0
DWIDTH 9 0
BBX 8 12 0 12
BITMAP
3C
7F
E3
C3
03
06
0E
1C
38
60
FF
FF
ENDCHAR

STARTCHAR threesuperior
ENCODING 179
SWIDTH 273 0
DWIDTH 9 0
BBX 8 13 0 11
BITMAP
3C
7F
63
23
07
0C
0E
03
03
C3
E7
7E
3C
ENDCHAR

STARTCHAR acute
ENCODING 180
SWIDTH 273 0
DWIDTH 9 0
BBX 5 5 3 19
BITMAP
38
70
60
E0
C0
ENDCHAR

STARTCHAR mu
ENCODING 181
SWIDTH 456 0
DWIDTH 15 0
BBX 11 24 2 -7
BITMAP
C060
C060
C060
C060
C060
C060
C060
C060
C060
C060
C060
C060
E0E0
F1E0
FFA0
DF60
CE60
C000
C000
C000
C000
C000
C000
C000
ENDCHAR

STARTCHAR paragraph
ENCODING 182
SWIDTH 440 0
DWIDTH 15 0
BBX 14 31 0 -7
BITMAP
1FFC
3FFC
7FFC
FE30
FE30
FE30
FE30
FE30
FE30
FE30
FE30
7E30
3E30
0E30
0630
0630
0630
0630
0630
0630
0630
0630
0630
0630
0630
0630
0630
0630
0630
0630
0630
ENDCHAR

STARTCHAR periodcentered
ENCODING 183
SWIDTH 228 0
DWIDTH 8 0
BBX 3 3 2 10
BITMAP
E0
E0
E0
ENDCHAR

STARTCHAR cedilla
ENCODING 184
SWIDTH 273 0
DWIDTH 9 0
BBX 6 8 1 -7
BITMAP
30
30
38
1C
0C
1C
FC
F8
ENDCHAR

STARTCHAR onesuperior
ENCODING 185
SWIDTH 273 0
DWIDTH 9 0
BBX 5 12 1 12
BITMAP
18
38
78
F8
98
18
18
18
18
18
18
18
ENDCHAR

STARTCHAR ordmasculine
ENCODING 186
SWIDTH 299 0
DWIDTH 10 0
BBX 9 12 0 12
BITMAP
3E00
7F00
6300
C180
C180
C180
C180
C180
E180
6300
7F00
1E00
ENDCHAR

STARTCHAR guillemotright
ENCODING 187
SWIDTH 456 0
DWIDTH 15 0
BBX 11 15 2 1
BITMAP
C600
6300
6300
3180
31C0
38C0
1C60
1CE0
1CE0
38C0
31C0
3180
6300
6300
C600
ENDCHAR

STARTCHAR onequarter
ENCODING 188
SWIDTH 684 0
DWIDTH 23 0
BBX 21 25 1 -1
BITMAP
180060
1800C0
7800C0
F80180
D80380
180300
180600
180600
180C00
181C00
181800
183000
183000
006030
00E070
00C070
0180F0
0181F0
0303B0
070330
060630
0C07F8
0C07F8
180030
380030
ENDCHAR

STARTCHAR onehalf
ENCODING 189
SWIDTH 684 0
DWIDTH 23 0
BBX 21 25 1 -1
BITMAP
1800E0
1800C0
780180
F80180
D80300
180700
180600
180C00
180C00
181800
183800
183000
186000
0061E0
00C3F8
01C718
018618
030018
030030
060070
0600E0
0C01C0
180300
1807F8
3007F8
ENDCHAR

STARTCHAR threequarters
ENCODING 190
SWIDTH 684 0
DWIDTH 23 0
BBX 22 25 0 -1
BITMAP
3C0030
7F0060
6300E0
2300C0
070180
0C0180
0E0300
030700
030600
C30C00
E70C00
7E1800
3C3800
003018
006038
006078
00C0F8
01C0D8
018198
030318
0303FC
0603FC
0E0018
0C0018
180018
ENDCHAR

STARTCHAR questiondown
ENCODING 191
SWIDTH 501 0
DWIDTH 17 0
BBX 13 24 2 -7
BITMAP
0700
0700
0700
0000
0000
0000
0700
0700
0700
0700
0E00
1E00
3C00
7800
7000
E000
E000
C038
C038
E030
F070
78F0
3FE0
1F80
ENDCHAR

STARTCHAR Agrave
ENCODING 192
SWIDTH 547 0
DWIDTH 18 0
BBX 18 30 0 0
BITMAP
038000
01C000
00C000
00E000
000000
000000
01C000
01E000
01E000
03A000
037000
033000
073000
073800
063800
0E1800
0E1C00
0C1C00
0C0C00
1C0E00
1FFE00
1FFE00
3FFF00
380700
300700
700380
700380
600380
E001C0
E001C0
ENDCHAR

STARTCHAR Aacute
ENCODING 193
SWIDTH 547 0
DWIDTH 18 0
BBX 18 30 0 0
BITMAP
007000
006000
00E000
01C000
000000
000000
01C000
01E000
01E000
03A000
037000
033000
073000
073800
063800
0E1800
0E1C00
0C1C00
0C0C00
1C0E00
1FFE00
1FFE00
3FFF00
380700
300700
700380
700380
600380
E001C0
E001C0
ENDCHAR

STARTCHAR Acircumflex
ENCODING 194
SWIDTH 547 0
DWIDTH 18 0
BBX 18 30 0 0
BITMAP
01E000
01E000
03B000
073800
000000
000000
01C000
01E000
01E000
03A000
037000
033000
073000
073800
063800
0E1800
0E1C00
0C1C00
0C0C00
1C0E00
1FFE00
1FFE00
3FFF00
380700
300700
700380
700380
600380
E001C0
E001C0
ENDCHAR

STARTCHAR Atilde
ENCODING 195
SWIDTH 547 0
DWIDTH 18 0
BBX 18 30 0 0
BITMAP
000800
039800
07F800
067000
000000
000000
01C000
01E000
01E000
03A000
037000
033000
073000
073800
063800
0E1800
0E1C00
0C1C00
0C0C00
1C0E00
1FFE00
1FFE00
3FFF00
380700
300700
700380
700380
600380
E001C0
E001C0
ENDCHAR

STARTCHAR Adieresis
ENCODING 196
SWIDTH 547 0
DWIDTH 18 0
BBX 18 30 0 0
BITMAP
073000
073000
073000
000000
000000
000000
01C000
01C000
01E000
036000
036000
037000
077000
063000
063800
0E3800
0E1800
0C1C00
1C1C00
1C0C00
1FFE00
3FFE00
3FFE00
380700
300700
700700
700380
600380
E00380
E001C0
ENDCHAR

STARTCHAR Aring
ENCODING 197
SWIDTH 547 0
DWIDTH 18 0
BBX 19 31 0 0
BITMAP
00E000
01B000
011000
011000
01B000
00E000
000000
00E000
01E000
01F000
01B000
03B000
03B800
033800
071800
071C00
061C00
0E0C00
0E0E00
0C0E00
0C0600
1FFF00
1FFF00
1FFF00
380380
380380
300380
7001C0
7001C0
6001C0
E000E0
ENDCHAR

STARTCHAR AE
ENCODING 198
SWIDTH 820 0
DWIDTH 27 0
BBX 26 24 0 0
BITMAP
007FFFC0
007FFFC0
007FFFC0
00E70000
00E70000
01C70000
01C70000
01870000
03870000
03870000
0307FF80
0707FF80
0607FF80
0E070000
0FFF0000
0FFF0000
1FFF0000
1C070000
38070000
38070000
30070000
7007FFC0
7007FFC0
E007FFC0
ENDCHAR

STARTCHAR Ccedilla
ENCODING 199
SWIDTH 592 0
DWIDTH 20 0
BBX 17 31 1 -7
BITMAP
01E000
0FF800
1FFC00
3C0E00
380700
700700
700380
600200
600000
E00000
E00000
E00000
E00000
E00000
E00000
600200
600380
700300
700700
380F00
3C1E00
1FFC00
0FF800
03E000
018000
01C000
00E000
006000
00E000
07E000
078000
ENDCHAR

STARTCHAR Egrave
ENCODING 200
SWIDTH 547 0
DWIDTH 18 0
BBX 15 30 2 0
BITMAP
0F00
0700
0300
0180
0000
0000
FFFC
FFFC
FFFC
E000
E000
E000
E000
E000
E000
E000
FFFC
FFFC
FFFC
E000
E000
E000
E000
E000
E000
E000
E000
FFFE
FFFE
FFFE
ENDCHAR

STARTCHAR Eacute
ENCODING 201
SWIDTH 547 0
DWIDTH 18 0
BBX 15 30 2 0
BITMAP
01E0
01C0
0180
0300
0000
0000
FFFC
FFFC
FFFC
E000
E000
E000
E000
E000
E000
E000
FFFC
FFFC
FFFC
E000
E000
E000
E000
E000
E000
E000
E000
FFFE
FFFE
FFFE
ENDCHAR

STARTCHAR Ecircumflex
ENCODING 202
SWIDTH 547 0
DWIDTH 18 0
BBX 15 30 2 0
BITMAP
0380
07C0
0EE0
1C70
0000
0000
FFFC
FFFC
FFFC
E000
E000
E000
E000
E000
E000
E000
FFFC
FFFC
FFFC
E000
E000
E000
E000
E000
E000
E000
E000
FFFE
FFFE
FFFE
ENDCHAR

STARTCHAR Edieresis
ENCODING 203
SWIDTH 547 0
DWIDTH 18 0
BBX 15 30 2 0
BITMAP
0C60
0C60
0C60
0000
0000
0000
FFFC
FFFC
FFFC
E000
E000
E000
E000
E000
E000
E000
FFFC
FFFC
FFFC
E000
E000
E000
E000
E000
E000
E000
E000
FFFE
FFFE
FFFE
ENDCHAR

STARTCHAR Igrave
ENCODING 204
SWIDTH 228 0
DWIDTH 8 0
BBX 5 30 0 0
BITMAP
F0
70
30
18
00
00
38
38
38
38
38
38
38
38
38
38
38
38
38
38
38
38
38
38
38
38
38
38
38
38
ENDCHAR

STARTCHAR Iacute
ENCODING 205
SWIDTH 228 0
DWIDTH 8 0
BBX 5 30 2 0
BITMAP
78
70
60
C0
00
00
E0
E0
E0
E0
E0
E0
E0
E0
E0
E0
E0
E0
E0
E0
E0
E0
E0
E0
E0
E0
E0
E0
E0
E0
ENDCHAR

STARTCHAR Icircumflex
ENCODING 206
SWIDTH 228 0
DWIDTH 8 0
BBX 9 30 -1 0
BITMAP
1C00
3E00
7700
E380
0000
0000
1C00
1C00
1C00
1C00
1C00
1C00
1C00
1C00
1C00
1C00
1C00
1C00
1C00
1C00
1C00
1C00
1C00
1C00
1C00
1C00
1C00
1C00
1C00
1C00
ENDCHAR

STARTCHAR Idieresis
ENCODING 207
SWIDTH 228 0
DWIDTH 8 0
BBX 7 30 0 0
BITMAP
CE
CE
CE
00
00
00
38
38
38
38
38
38
38
38
38
38
38
38
38
38
38
38
38
38
38
38
38
38
38
38
ENDCHAR

STARTCHAR Gbreve
ENCODING 208
SWIDTH 638 0
DWIDTH 21 0
BBX 18 30 1 0
BITMAP
061800
033000
03F000
01E000
000000
000000
01F800
07FE00
0FFE00
1E0F00
380380
380380
700180
700100
600000
E00000
E00000
E00000
E03FC0
E03FC0
E03FC0
6001C0
7001C0
7001C0
3001C0
3803C0
1E07C0
0FFF00
07FE00
01F800
ENDCHAR

STARTCHAR Ntilde
ENCODING 209
SWIDTH 592 0
DWIDTH 20 0
BBX 15 30 2 0
BITMAP
0030
0F30
1FF0
18E0
0000
0000
E006
E006
F006
F006
F806
D806
DC06
CE06
CE06
C706
C706
C386
C386
C1C6
C1C6
C0E6
C076
C076
C03A
C03E
C01E
C01E
C00E
C00E
ENDCHAR

STARTCHAR Ograve
ENCODING 210
SWIDTH 638 0
DWIDTH 21 0
BBX 19 30 1 0
BITMAP
03C000
01C000
00C000
00E000
006000
000000
01F000
07FC00
0FFF00
1E0F00
380380
3003C0
7001C0
7001C0
6000E0
E000E0
E000E0
E000E0
E000E0
E000E0
E000E0
6000E0
7000C0
7001C0
380380
380380
1E0F00
0FFE00
07FC00
01F000
ENDCHAR

STARTCHAR Oacute
ENCODING 211
SWIDTH 638 0
DWIDTH 21 0
BBX 19 30 1 0
BITMAP
003800
007000
006000
00E000
00C000
000000
01F000
07FC00
0FFF00
1E0F00
380380
3003C0
7001C0
7001C0
6000E0
E000E0
E000E0
E000E0
E000E0
E000E0
E000E0
6000E0
7000C0
7001C0
380380
380380
1E0F00
0FFE00
07FC00
01F000
ENDCHAR

STARTCHAR Ocircumflex
ENCODING 212
SWIDTH 638 0
DWIDTH 21 0
BBX 19 30 1 0
BITMAP
00E000
01F000
01B000
03B800
071C00
000000
01F000
07FC00
0FFF00
1E0F00
380380
3003C0
7001C0
7001C0
6000E0
E000E0
E000E0
E000E0
E000E0
E000E0
E000E0
6000E0
7000C0
7001C0
380380
380380
1E0F00
0FFE00
07FC00
01F000
ENDCHAR

STARTCHAR Otilde
ENCODING 213
SWIDTH 638 0
DWIDTH 21 0
BBX 19 30 1 0
BITMAP
000C00
03CC00
07FC00
063800
000000
000000
01F000
07FC00
0FFF00
1E0F00
380380
3003C0
7001C0
7001C0
6000E0
E000E0
E000E0
E000E0
E000E0
E000E0
E000E0
6000E0
7000C0
7001C0
380380
380380
1E0F00
0FFE00
07FC00
01F000
ENDCHAR

STARTCHAR Odieresis
ENCODING 214
SWIDTH 638 0
DWIDTH 21 0
BBX 19 30 1 0
BITMAP
039800
039800
039800
000000
000000
000000
01F000
07FC00
0FFF00
1E0F00
3C0380
3801C0
7001C0
7000C0
6000E0
E000E0
E000E0
E000E0
E000E0
E000E0
E000E0
6000E0
7000C0
7001C0
380180
3C0380
1E0F00
0FFE00
07FC00
00F000
ENDCHAR

STARTCHAR multiply
ENCODING 215
SWIDTH 479 0
DWIDTH 16 0
BBX 12 14 2 5
BITMAP
2020
6070
F0E0
71E0
39C0
1F80
0F00
0F00
1F80
3D80
39C0
70E0
E070
4060
ENDCHAR

STARTCHAR Oslash
ENCODING 216
SWIDTH 638 0
DWIDTH 21 0
BBX 19 24 1 0
BITMAP
01F060
07FCE0
0FFEC0
1E0F80
380380
3807C0
7006C0
700CC0
6018E0
E038E0
E030E0
E060E0
E0C0E0
E1C0E0
E380E0
6300E0
7600C0
7601C0
3C0380
380380
3E0F00
6FFE00
E7FC00
C1F000
ENDCHAR

STARTCHAR Ugrave
ENCODING 217
SWIDTH 592 0
DWIDTH 20 0
BBX 16 30 2 0
BITMAP
0700
0380
0380
01C0
0000
0000
E007
E007
E007
E007
E007
E007
E007
E007
E007
E007
E007
E007
E007
E007
E007
E007
E007
E007
700E
700E
781E
3FFC
1FF8
07E0
ENDCHAR

STARTCHAR Uacute
ENCODING 218
SWIDTH 592 0
DWIDTH 20 0
BBX 16 30 2 0
BITMAP
00E0
01C0
01C0
0380
0000
0000
E007
E007
E007
E007
E007
E007
E007
E007
E007
E007
E007
E007
E007
E007
E007
E007
E007
E007
700E
700E
781E
3FFC
1FF8
07E0
ENDCHAR

STARTCHAR Ucircumflex
ENCODING 219
SWIDTH 592 0
DWIDTH 20 0
BBX 16 30 2 0
BITMAP
03C0
07C0
0760
0E70
0000
0000
E007
E007
E007
E007
E007
E007
E007
E007
E007
E007
E007
E007
E007
E007
E007
E007
E007
E007
700E
700E
781E
3FFC
1FF8
07E0
ENDCHAR

STARTCHAR Udieresis
ENCODING 220
SWIDTH 592 0
DWIDTH 20 0
BBX 15 30 2 0
BITMAP
0C60
0C60
0C60
0000
0000
0000
E00E
E00E
E00E
E00E
E00E
E00E
E00E
E00E
E00E
E00E
E00E
E00E
E00E
E00E
E00E
E00E
E00E
E00E
600C
701C
783C
3FF8
1FF0
07C0
ENDCHAR

STARTCHAR Idotaccent
ENCODING 221
SWIDTH 228 0
DWIDTH 8 0
BBX 3 29 2 0
BITMAP
E0
E0
E0
E0
00
E0
E0
E0
E0
E0
E0
E0
E0
E0
E0
E0
E0
E0
E0
E0
E0
E0
E0
E0
E0
E0
E0
E0
E0
ENDCHAR

STARTCHAR Scedilla
ENCODING 222
SWIDTH 547 0
DWIDTH 18 0
BBX 15 31 1 -7
BITMAP
07C0
1FF0
3FF8
783C
701C
600E
600E
6000
7000
3C00
3F80
0FF0
03FC
007C
001E
000E
E006
E006
E00E
700E
781C
3FFC
1FF8
07E0
0300
0380
01C0
00C0
01C0
07C0
0780
ENDCHAR

STARTCHAR germandbls
ENCODING 223
SWIDTH 501 0
DWIDTH 17 0
BBX 13 24 2 0
BITMAP
1F00
7F80
71C0
E0C0
E0C0
C0C0
C1C0
C180
C180
C380
C300
C300
C380
C3C0
C1E0
C0F0
C038
C038
C018
C418
CE38
CF78
C7F0
C3E0
ENDCHAR

STARTCHAR agrave
ENCODING 224
SWIDTH 456 0
DWIDTH 15 0
BBX 13 23 1 0
BITMAP
1E00
0600
0700
0300
0000
0000
1FC0
3FE0
78F0
7070
6030
0030
0070
0FF0
3FD0
7C30
6030
E030
E070
E070
71F0
7FB8
1F38
ENDCHAR

STARTCHAR aacute
ENCODING 225
SWIDTH 456 0
DWIDTH 15 0
BBX 13 23 1 0
BITMAP
03C0
0380
0300
0600
0000
0000
1FC0
3FE0
78F0
7070
6030
0030
0070
0FF0
3FD0
7C30
6030
E030
E070
E070
71F0
7FB8
1F38
ENDCHAR

STARTCHAR acircumflex
ENCODING 226
SWIDTH 456 0
DWIDTH 15 0
BBX 13 23 1 0
BITMAP
0700
0E80
1DC0
18E0
0000
0000
1FC0
3FE0
78F0
7070
6030
0030
0070
0FF0
3FD0
7C30
6030
E030
E070
E070
71F0
7FB8
1F38
ENDCHAR

STARTCHAR atilde
ENCODING 227
SWIDTH 456 0
DWIDTH 15 0
BBX 13 24 1 0
BITMAP
0060
1E60
1FE0
31C0
3000
0000
0000
1FC0
3FE0
78F0
7070
6030
0030
0070
0FF0
3FD0
7C30
6030
E030
E070
E070
71F0
7FB8
1F38
ENDCHAR

STARTCHAR adieresis
ENCODING 228
SWIDTH 456 0
DWIDTH 15 0
BBX 13 24 1 0
BITMAP
18C0
18C0
18C0
0000
0000
0000
0000
1FC0
3FE0
78F0
6070
6030
0030
0070
0FF0
3FD0
7C30
6030
E030
E070
E070
71F0
7FB8
3F38
ENDCHAR

STARTCHAR aring
ENCODING 229
SWIDTH 456 0
DWIDTH 15 0
BBX 13 24 1 0
BITMAP
0700
0D80
0880
0880
0D80
0700
0000
1FC0
3FE0
78F0
6030
6030
0030
0070
0FF0
3FD0
7C30
6030
E030
E070
E070
71F0
7FB8
3F38
ENDCHAR

STARTCHAR ae
ENCODING 230
SWIDTH 729 0
DWIDTH 24 0
BBX 22 17 1 0
BITMAP
1FC7E0
3FEFF0
70FC38
607818
E0701C
00300C
00700C
1FFFFC
7FBFFC
783000
E07000
C07008
C0701C
E0F818
F1DC78
7F8FF0
3F07E0
ENDCHAR

STARTCHAR ccedilla
ENCODING 231
SWIDTH 410 0
DWIDTH 14 0
BBX 12 23 1 -6
BITMAP
1F80
3FC0
79E0
60E0
E060
C040
C000
C000
C000
C000
C000
E070
E060
60E0
71E0
3FC0
1F00
0C00
0E00
0300
0300
1F00
1E00
ENDCHAR

STARTCHAR egrave
ENCODING 232
SWIDTH 456 0
DWIDTH 15 0
BBX 13 24 1 0
BITMAP
1C00
0E00
0E00
0600
0300
0000
0000
1F80
3FE0
78E0
7070
E030
E038
C038
FFF8
FFF8
C000
C000
E020
E038
7070
78F0
3FE0
0F80
ENDCHAR

STARTCHAR eacute
ENCODING 233
SWIDTH 456 0
DWIDTH 15 0
BBX 13 24 1 0
BITMAP
03C0
0380
0300
0700
0600
0000
0000
1F80
3FE0
78E0
7070
E030
E038
C038
FFF8
FFF8
C000
C000
E020
E038
7070
78F0
3FE0
0F80
ENDCHAR

STARTCHAR ecircumflex
ENCODING 234
SWIDTH 456 0
DWIDTH 15 0
BBX 13 24 1 0
BITMAP
0700
0F00
0D80
1DC0
38E0
0000
0000
1F80
3FE0
78E0
7070
E030
E038
C038
FFF8
FFF8
C000
C000
E020
E038
7070
78F0
3FE0
0F80
ENDCHAR

STARTCHAR edieresis
ENCODING 235
SWIDTH 456 0
DWIDTH 15 0
BBX 13 24 1 0
BITMAP
18C0
18C0
18C0
0000
0000
0000
0000
1FC0
3FE0
78E0
7070
E030
E038
E038
FFF8
FFF8
C000
E000
E020
E038
7070
78F0
3FE0
0FC0
ENDCHAR

STARTCHAR igrave
ENCODING 236
SWIDTH 228 0
DWIDTH 8 0
BBX 5 24 1 0
BITMAP
E0
E0
70
30
38
00
00
30
30
30
30
30
30
30
30
30
30
30
30
30
30
30
30
30
ENDCHAR

STARTCHAR iacute
ENCODING 237
SWIDTH 228 0
DWIDTH 8 0
BBX 5 24 2 0
BITMAP
38
38
70
60
E0
00
00
60
60
60
60
60
60
60
60
60
60
60
60
60
60
60
60
60
ENDCHAR

STARTCHAR icircumflex
ENCODING 238
SWIDTH 228 0
DWIDTH 8 0
BBX 8 24 0 0
BITMAP
18
3C
76
66
E7
00
00
18
18
18
18
18
18
18
18
18
18
18
18
18
18
18
18
18
ENDCHAR

STARTCHAR idieresis
ENCODING 239
SWIDTH 228 0
DWIDTH 8 0
BBX 7 24 1 0
BITMAP
CE
CE
CE
00
00
00
00
30
30
30
30
30
30
30
30
30
30
30
30
30
30
30
30
30
ENDCHAR

STARTCHAR gbreve
ENCODING 240
SWIDTH 456 0
DWIDTH 15 0
BBX 12 30 1 -7
BITMAP
30C0
39C0
1F80
0F00
0000
0000
1F30
3FB0
79F0
7070
E070
E030
C030
C030
C030
C030
C030
E030
E070
7070
79F0
3FB0
1F30
0030
0030
E070
E070
71E0
3FC0
1F80
ENDCHAR

STARTCHAR ntilde
ENCODING 241
SWIDTH 456 0
DWIDTH 15 0
BBX 11 24 2 0
BITMAP
00C0
3CC0
3FC0
6380
6000
0000
0000
C700
DFC0
DFE0
F0E0
E060
C060
C060
C060
C060
C060
C060
C060
C060
C060
C060
C060
C060
ENDCHAR

STARTCHAR ograve
ENCODING 242
SWIDTH 456 0
DWIDTH 15 0
BBX 13 23 1 0
BITMAP
1E00
0E00
0700
0300
0000
0000
0F80
3FE0
78F0
7070
E038
E038
C018
C018
C018
C018
C018
E038
E038
7070
78F0
3FE0
0F80
ENDCHAR

STARTCHAR oacute
ENCODING 243
SWIDTH 456 0
DWIDTH 15 0
BBX 13 23 1 0
BITMAP
03C0
0380
0700
0600
0000
0000
0F80
3FE0
78F0
7070
E038
E038
C018
C018
C018
C018
C018
E038
E038
7070
78F0
3FE0
0F80
ENDCHAR

STARTCHAR ocircumflex
ENCODING 244
SWIDTH 456 0
DWIDTH 15 0
BBX 13 23 1 0
BITMAP
0F00
0D80
1DC0
38E0
0000
0000
0F80
3FE0
78F0
7070
E038
E038
C018
C018
C018
C018
C018
E038
E038
7070
78F0
3FE0
0F80
ENDCHAR

STARTCHAR otilde
ENCODING 245
SWIDTH 456 0
DWIDTH 15 0
BBX 13 24 1 0
BITMAP
0060
1E60
3FE0
33C0
3000
0000
0000
0F80
3FE0
78F0
7070
E038
E038
C018
C018
C018
C018
C018
E038
E038
7070
78F0
3FE0
0F80
ENDCHAR

STARTCHAR odieresis
ENCODING 246
SWIDTH 456 0
DWIDTH 15 0
BBX 13 24 1 0
BITMAP
19C0
19C0
19C0
0000
0000
0000
0000
1F80
3FE0
78F0
7070
E038
E038
C038
C038
C018
C038
C038
E038
E038
7070
78F0
3FE0
1F80
ENDCHAR

STARTCHAR divide
ENCODING 247
SWIDTH 479 0
DWIDTH 16 0
BBX 13 13 1 5
BITMAP
0700
0700
0700
0000
0000
FFF8
FFF8
FFF8
0000
0000
0700
0700
0700
ENDCHAR

STARTCHAR oslash
ENCODING 248
SWIDTH 501 0
DWIDTH 17 0
BBX 13 19 2 -1
BITMAP
0008
0F98
3FF0
78F0
7070
E0F8
E0D8
C198
C318
C318
C618
CC18
EC38
F838
7070
78F0
7FE0
CF80
4000
ENDCHAR

STARTCHAR ugrave
ENCODING 249
SWIDTH 456 0
DWIDTH 15 0
BBX 11 24 2 0
BITMAP
3800
1C00
0C00
0E00
0600
0000
0000
C060
C060
C060
C060
C060
C060
C060
C060
C060
C060
C060
C060
E0E0
E1E0
7FA0
7F60
1C60
ENDCHAR

STARTCHAR uacute
ENCODING 250
SWIDTH 456 0
DWIDTH 15 0
BBX 11 24 2 0
BITMAP
0380
0700
0700
0600
0C00
0000
0000
C060
C060
C060
C060
C060
C060
C060
C060
C060
C060
C060
C060
E0E0
E1E0
7FA0
7F60
1C60
ENDCHAR

STARTCHAR ucircumflex
ENCODING 251
SWIDTH 456 0
DWIDTH 15 0
BBX 11 24 2 0
BITMAP
0E00
0E00
1B00
3B80
71C0
0000
0000
C060
C060
C060
C060
C060
C060
C060
C060
C060
C060
C060
C060
E0E0
E1E0
7FA0
7F60
1C60
ENDCHAR

STARTCHAR udieresis
ENCODING 252
SWIDTH 456 0
DWIDTH 15 0
BBX 11 24 2 0
BITMAP
3180
3180
3180
0000
0000
0000
0000
C060
C060
C060
C060
C060
C060
C060
C060
C060
C060
C060
C060
E0E0
E1E0
7FA0
7F60
1C60
ENDCHAR

STARTCHAR dotlessi
ENCODING 253
SWIDTH 228 0
DWIDTH 8 0
BBX 2 17 3 0
BITMAP
C0
C0
C0
C0
C0
C0
C0
C0
C0
C0
C0
C0
C0
C0
C0
C0
C0
ENDCHAR

STARTCHAR scedilla
ENCODING 254
SWIDTH 410 0
DWIDTH 14 0
BBX 12 24 0 -7
BITMAP
1F80
3FE0
70E0
6070
6070
7000
7C00
3F80
1FE0
03F0
0070
2030
E030
7070
78F0
3FE0
1F80
0600
0700
0380
0180
0380
1F80
1F00
ENDCHAR

STARTCHAR ydieresis
ENCODING 255
SWIDTH 410 0
DWIDTH 14 0
BBX 13 31 0 -7
BITMAP
18C0
18C0
18C0
0000
0000
0000
0000
E038
E038
6030
7030
7070
3060
3860
38E0
18C0
18C0
1DC0
0D80
0D80
0E80
0780
0700
0700
0700
0600
0600
0E00
7C00
7800
7000
ENDCHAR
ENDFONT
